HIERARCHY
ROOT Hips
{
	OFFSET 0.000000 0.000000 0.000000
	CHANNELS 6 Xposition Yposition Zposition Zrotation Yrotation Xrotation 
	JOINT LeftUpLeg_virtual
	{
		OFFSET 0.000000 0.000000 0.000000
		CHANNELS 3 Zrotation Yrotation Xrotation
		JOINT LeftUpLeg
		{
			OFFSET 8.479694 -4.795517 -0.379053
			CHANNELS 3 Zrotation Yrotation Xrotation
			JOINT LeftLeg
			{
				OFFSET 0.485052 -32.551468 0.112863
				CHANNELS 3 Zrotation Yrotation Xrotation
				JOINT LeftFoot
				{
					OFFSET 0.438033 -32.635670 -3.012641
					CHANNELS 3 Zrotation Yrotation Xrotation
					JOINT LeftToeBase
					{
						OFFSET 0.970169 -13.225353 11.864223
						CHANNELS 3 Zrotation Yrotation Xrotation
						End Site
						{
							OFFSET 0.000000 0.000000 0.000000
						}
					}
				}
			}
		}
	}
	JOINT RightUpLeg_virtual
	{
		OFFSET 0.000000 0.000000 0.000000
		CHANNELS 3 Zrotation Yrotation Xrotation
		JOINT RightUpLeg
		{
			OFFSET -8.479694 -4.795517 -0.379053
			CHANNELS 3 Zrotation Yrotation Xrotation
			JOINT RightLeg
			{
				OFFSET -0.484100 -32.551483 0.112903
				CHANNELS 3 Zrotation Yrotation Xrotation
				JOINT RightFoot
				{
					OFFSET -0.438985 -32.635651 -3.012681
					CHANNELS 3 Zrotation Yrotation Xrotation
					JOINT RightToeBase
					{
						OFFSET -0.970169 -13.225354 11.864223
						CHANNELS 3 Zrotation Yrotation Xrotation
						End Site
						{
							OFFSET 0.000000 0.000000 0.000000
						}
					}
				}
			}
		}
	}
	JOINT Spine_virtual
	{
		OFFSET 0.000000 0.000000 0.000000
		CHANNELS 3 Zrotation Yrotation Xrotation
		JOINT Spine
		{
			OFFSET 0.000000 7.722015 1.166203
			CHANNELS 3 Zrotation Yrotation Xrotation
			JOINT Spine1
			{
				OFFSET 0.000000 12.024086 0.248766
				CHANNELS 3 Zrotation Yrotation Xrotation
				JOINT Spine2
				{
					OFFSET -0.000000 11.503036 -0.491240
					CHANNELS 3 Zrotation Yrotation Xrotation
					JOINT Neck_virtual
					{
						OFFSET 0.000000 0.000000 0.000000
						CHANNELS 3 Zrotation Yrotation Xrotation
						JOINT Neck
						{
							OFFSET 0.000000 18.430687 -3.123054
							CHANNELS 3 Zrotation Yrotation Xrotation
							JOINT Head
							{
								OFFSET -0.000000 9.051071 1.034021
								CHANNELS 3 Zrotation Yrotation Xrotation
								End Site
								{
									OFFSET 0.000000 0.000000 0.000000
								}
							}
						}
					}
					JOINT LeftShoulder_virtual
					{
						OFFSET 0.000000 0.000000 0.000000
						CHANNELS 3 Zrotation Yrotation Xrotation
						JOINT LeftShoulder
						{
							OFFSET 6.197824 13.665230 -4.064723
							CHANNELS 3 Zrotation Yrotation Xrotation
							JOINT LeftArm
							{
								OFFSET 7.778132 -0.187073 -1.709282
								CHANNELS 3 Zrotation Yrotation Xrotation
								JOINT LeftForeArm
								{
									OFFSET 21.954697 0.000000 -2.041093
									CHANNELS 3 Zrotation Yrotation Xrotation
									JOINT LeftHand
									{
										OFFSET 22.992908 0.000000 -0.870901
										CHANNELS 3 Zrotation Yrotation Xrotation
										End Site
										{
											OFFSET 0.000000 0.000000 0.000000
										}
									}
								}
							}
						}
					}
					JOINT RightShoulder_virtual
					{
						OFFSET 0.000000 0.000000 0.000000
						CHANNELS 3 Zrotation Yrotation Xrotation
						JOINT RightShoulder
						{
							OFFSET -6.197824 13.665230 -4.064723
							CHANNELS 3 Zrotation Yrotation Xrotation
							JOINT RightArm
							{
								OFFSET -7.778132 -0.187073 -1.709282
								CHANNELS 3 Zrotation Yrotation Xrotation
								JOINT RightForeArm
								{
									OFFSET -21.954697 0.000000 -2.041093
									CHANNELS 3 Zrotation Yrotation Xrotation
									JOINT RightHand
									{
										OFFSET -22.992908 0.000000 -0.870901
										CHANNELS 3 Zrotation Yrotation Xrotation
										End Site
										{
											OFFSET 0.000000 0.000000 0.000000
										}
									}
								}
							}
						}
					}
				}
			}
		}
	}
}
MOTION
Frames: 14
Frame Time: 0.033333
15.942853 78.959373 -33.237488 -179.827420 -13.718274 -179.235980 -0.914935 -1.984246 9.344993 16.994248 -5.868016 -44.220222 1.731371 -2.430714 37.447905 -2.307740 -0.817766 10.168836 0.000000 0.000000 0.000000 3.502199 -2.258859 11.705848 -13.471278 15.392352 -22.853791 0.405974 8.236828 48.863826 6.023490 3.075911 -6.816578 0.000000 0.000000 0.000000 4.974609 0.963704 -4.546475 2.513445 1.184163 -3.437517 0.171174 -2.210495 11.310899 -0.002817 -0.026671 0.047633 0.203763 -1.394868 12.158818 -7.415880 6.277405 3.518647 0.000000 0.000000 0.000000 1.815650 -0.798430 9.107135 6.292019 -3.952833 -0.739019 -74.218359 0.262214 21.143817 -6.915744 -69.000661 19.840497 0.000000 0.000000 0.000000 -2.634392 0.987413 8.003956 17.623338 6.241727 -2.196680 68.588603 14.495483 20.931675 -168.572880 73.537006 -173.110434 0.000000 0.000000 0.000000 
12.572127 78.660217 -33.914387 179.503054 -10.964172 -179.411530 -0.427034 -1.622819 9.774397 16.727765 -7.437559 -42.758337 1.453518 -3.477062 38.401219 -1.650775 -1.376612 7.926415 0.000000 0.000000 0.000000 3.552618 -1.966439 11.626095 -15.986638 15.058214 -25.211294 0.731859 8.662334 50.856188 7.074494 3.026240 -4.967173 0.000000 0.000000 0.000000 4.706881 1.484584 -3.898796 3.079994 0.999642 -2.357498 0.153180 -2.332522 11.123171 0.121758 -0.136372 0.077903 0.480220 -1.237019 11.722402 -7.110142 6.304320 2.836106 0.000000 0.000000 0.000000 1.936101 -0.814335 8.753679 6.473691 -3.609200 -0.657050 -74.515404 -0.650215 22.237341 -10.534866 -75.459206 25.422473 0.000000 0.000000 0.000000 -2.584347 0.832240 7.733963 17.399781 5.706340 -2.052639 68.787778 13.221439 18.218561 -168.436672 73.511222 -173.596771 0.000000 0.000000 0.000000 
9.225805 78.306969 -34.141678 178.911287 -8.038812 -179.643975 0.306047 -1.069808 10.542386 15.825600 -8.423829 -42.360724 0.895216 -4.545932 40.270078 -1.517053 -2.261322 4.798582 0.000000 0.000000 0.000000 3.577708 -1.904389 11.569476 -18.574932 14.491127 -27.958859 0.907563 8.647706 53.035934 7.921308 2.785090 -3.333865 0.000000 0.000000 0.000000 4.665866 1.981966 -2.747936 3.691489 0.774466 -0.998417 0.053365 -2.415112 10.992452 0.077500 -0.129426 0.099634 0.642866 -0.977149 11.383753 -6.949107 6.504830 2.075101 0.000000 0.000000 0.000000 2.032249 -1.071759 8.504325 6.717324 -3.455417 -0.409877 -74.664486 -2.248416 22.920836 -16.487435 -80.706144 33.245352 0.000000 0.000000 0.000000 -2.626559 0.655304 7.487013 17.242714 5.486262 -1.864320 69.098114 12.759840 15.603463 -167.575358 73.503163 -173.314561 0.000000 0.000000 0.000000 
6.060273 77.936905 -33.832561 178.509507 -5.545110 -179.711921 1.121073 -0.398725 11.201955 14.450539 -8.612717 -42.508649 0.813747 -5.057374 42.357592 -1.260416 -2.761730 1.597484 0.000000 0.000000 0.000000 3.224385 -2.182571 11.569841 -20.741077 13.300997 -31.278564 1.268489 8.026448 56.048683 8.903879 3.027072 -2.185294 0.000000 0.000000 0.000000 4.682072 2.257035 -1.173592 4.239189 0.443346 0.551811 -0.085011 -2.517126 10.828139 0.227647 -0.124931 0.029906 0.608654 -1.233794 11.108929 -6.749836 6.151517 1.019147 0.000000 0.000000 0.000000 1.965642 -1.200737 8.301303 7.057968 -3.524295 -0.275353 -74.722447 -4.118338 23.231253 -26.242234 -83.869273 44.782535 0.000000 0.000000 0.000000 -2.640458 0.557965 7.273689 17.165780 5.436916 -1.684675 68.927797 12.819931 13.223408 -167.723423 73.401161 -173.951326 0.000000 0.000000 0.000000 
3.177604 77.606003 -33.147675 178.274044 -3.040898 -179.626407 1.614565 -0.013836 11.913954 12.952030 -8.838324 -43.257227 0.979858 -4.957898 43.838500 -1.241315 -3.126411 -1.740970 0.000000 0.000000 0.000000 2.675618 -1.747524 11.974503 -22.047702 12.226634 -35.485729 2.121164 8.063009 60.913116 10.966328 4.880781 -3.105420 0.000000 0.000000 0.000000 4.850177 2.613399 0.684592 4.653849 0.185598 2.283737 -0.389993 -2.551159 10.724516 0.274374 -0.190100 0.029790 0.551520 -1.296239 10.993762 -6.373464 5.748844 -0.060045 0.000000 0.000000 0.000000 1.883147 -1.295583 8.077205 7.500735 -3.779615 -0.029866 -74.600262 -6.153290 23.266314 -30.913907 -85.347981 51.077715 0.000000 0.000000 0.000000 -2.649638 0.457145 7.109172 17.120457 5.768146 -1.635829 68.599565 13.467665 11.600395 -167.699176 73.626612 -174.332615 0.000000 0.000000 0.000000 
0.627992 77.357407 -32.234577 178.063045 -0.770045 -179.584306 1.989644 0.559444 12.503304 11.649437 -8.920680 -43.874980 1.474856 -4.515859 44.755248 -1.380250 -3.289619 -4.775149 0.000000 0.000000 0.000000 2.377668 -1.075954 12.563228 -22.330349 10.412751 -39.735718 2.521143 8.090066 65.096989 11.906971 6.073975 -4.934361 0.000000 0.000000 0.000000 4.976983 3.130905 2.640561 4.802826 -0.023942 4.180995 -0.680400 -2.510454 10.695714 0.361821 -0.201402 0.035833 0.300323 -1.628940 10.978150 -6.053409 5.349399 -1.126173 0.000000 0.000000 0.000000 1.549604 -1.498064 8.077282 8.054215 -4.301334 0.150403 -74.503922 -8.177795 23.189537 -28.731542 -86.002177 50.344645 0.000000 0.000000 0.000000 -2.776391 0.219920 7.055582 17.225597 6.114542 -1.661441 67.916785 14.571944 10.993025 -167.386380 74.020987 -174.331713 0.000000 0.000000 0.000000 
-1.641575 77.207947 -31.289503 178.218432 1.190155 -179.719312 1.829431 1.227340 12.774073 10.257034 -8.681223 -44.401567 2.283959 -3.309753 45.166873 -1.458505 -3.003202 -6.017163 0.000000 0.000000 0.000000 2.233922 -0.096326 13.225963 -21.161613 8.328909 -43.926104 2.585045 7.603878 67.197976 11.321868 5.935326 -4.187805 0.000000 0.000000 0.000000 5.261618 3.948066 4.627091 4.912062 -0.130368 6.206867 -0.845857 -2.854641 10.731119 0.256376 -0.403350 0.069523 0.061799 -1.325460 10.929246 -5.997101 5.090102 -2.205619 0.000000 0.000000 0.000000 1.252262 -1.493049 8.147125 8.597517 -4.838401 0.486401 -74.544609 -9.989590 23.208438 -18.482137 -86.438059 41.266196 0.000000 0.000000 0.000000 -3.033392 0.214717 7.097649 16.832706 6.540390 -1.692867 67.957507 15.907263 11.010781 -166.993535 75.014192 -174.198538 0.000000 0.000000 0.000000 
-3.719663 77.131493 -30.398056 178.366442 2.916791 -179.961770 1.445381 1.848704 12.967734 9.174636 -8.476457 -44.671858 3.187105 -2.144972 45.279735 -1.673124 -2.618655 -6.757337 0.000000 0.000000 0.000000 2.771433 0.510566 13.538678 -19.172414 5.728364 -47.497689 2.746567 7.711688 67.881931 10.995536 6.312916 -3.535346 0.000000 0.000000 0.000000 5.154983 3.866314 6.622968 4.718967 -0.843638 8.330307 -0.839299 -2.546296 10.756766 0.103899 -0.201620 -0.005643 -0.327389 -1.623223 11.039023 -5.848635 4.769857 -3.115555 0.000000 0.000000 0.000000 0.884925 -1.246525 7.895577 9.135371 -5.167668 0.854571 -74.739809 -11.464302 23.518402 -10.175277 -86.786610 33.831986 0.000000 0.000000 0.000000 -3.269958 0.511576 7.040332 16.330803 7.017603 -1.822858 67.806136 17.211626 11.677814 -166.291160 76.584930 -173.730096 0.000000 0.000000 0.000000 
-5.689589 77.082100 -29.626024 178.507909 4.354820 179.890176 0.930378 2.063538 13.007568 8.311330 -8.177685 -44.983110 4.102428 -1.115804 45.260115 -1.959630 -2.233599 -7.228537 0.000000 0.000000 0.000000 2.654036 0.922544 13.845507 -15.871287 3.222163 -50.392289 2.679604 7.224684 66.828347 10.343254 6.340293 -3.071936 0.000000 0.000000 0.000000 5.334706 4.007299 8.308382 4.442793 -0.861355 10.431757 -1.117372 -2.353818 10.814585 0.184135 -0.251092 -0.011539 -0.408645 -1.464926 11.322070 -5.534213 4.443169 -3.740486 0.000000 0.000000 0.000000 0.740446 -1.390700 8.000608 9.759181 -5.718710 0.976237 -75.449384 -12.723105 23.623285 -1.601760 -87.085629 25.846109 0.000000 0.000000 0.000000 -3.378679 0.468560 7.121905 15.732789 7.110680 -1.941987 67.783316 18.430552 12.519447 -163.325150 78.096827 -170.989742 0.000000 0.000000 0.000000 
-7.562810 77.002129 -28.925182 178.593369 5.720984 179.728669 0.412736 1.684283 13.228523 7.549170 -7.769073 -45.516924 4.972132 -0.272360 45.753422 -2.286800 -1.913317 -7.581649 0.000000 0.000000 0.000000 2.689830 0.264317 13.939082 -12.555459 0.979475 -52.295736 2.649081 6.932978 65.019637 9.617788 6.277084 -2.525301 0.000000 0.000000 0.000000 5.168476 3.504941 9.946441 4.148196 -1.128425 12.446891 -1.042271 -2.202986 10.857488 0.101663 -0.159745 0.044729 -0.675629 -1.456599 11.491128 -5.416184 4.247114 -4.220095 0.000000 0.000000 0.000000 0.437565 -1.216544 7.995962 9.924628 -6.076085 1.259697 -76.094140 -13.736257 23.624714 11.690607 -87.226597 12.891648 0.000000 0.000000 0.000000 -3.590726 0.599082 7.118236 14.626982 7.194712 -2.192083 68.378936 19.591237 13.321399 -159.249672 79.965696 -167.222073 0.000000 0.000000 0.000000 
-9.235168 76.856659 -28.243530 178.654444 6.999297 179.381545 0.007506 0.880460 13.817195 6.879765 -7.221665 -46.543388 5.750450 0.349385 46.718699 -2.630112 -1.703992 -7.863936 0.000000 0.000000 0.000000 2.546704 -0.889656 14.475457 -9.402695 -0.973741 -53.582066 2.492903 6.394254 62.863825 8.829934 5.984752 -2.302621 0.000000 0.000000 0.000000 5.124475 2.586877 11.724245 3.854340 -1.068047 14.349642 -1.084789 -1.994551 10.865199 0.105228 -0.178204 0.000955 -0.780896 -1.277273 11.715016 -5.240430 3.461267 -4.400579 0.000000 0.000000 0.000000 0.284156 -1.037601 8.050861 9.755855 -6.371206 1.449317 -76.848897 -14.470586 23.258789 22.891809 -87.109781 1.898580 0.000000 0.000000 0.000000 -3.630976 0.677045 7.135453 13.280873 7.029765 -2.311102 68.961729 21.005852 13.964907 -152.235832 81.528519 -160.581764 0.000000 0.000000 0.000000 
-10.702824 76.620895 -27.578003 178.754056 8.134985 179.436146 -0.261989 0.135290 14.356976 6.271443 -6.447006 -48.084665 6.403587 0.780400 47.902548 -2.994036 -1.603016 -8.091079 0.000000 0.000000 0.000000 2.445209 -1.512194 14.733787 -6.677712 -2.823296 -54.005971 2.480512 6.031040 60.666048 8.995579 6.451680 -2.435693 0.000000 0.000000 0.000000 5.123926 1.463192 13.265680 3.585886 -0.781383 15.807163 -1.184683 -1.734675 10.752858 0.112867 -0.241499 -0.021169 -0.736523 -0.988971 11.855588 -5.067196 3.510449 -4.522429 0.000000 0.000000 0.000000 0.269886 -0.811917 7.963350 9.242551 -6.516149 1.641451 -77.539490 -14.995714 22.628487 26.997385 -86.598377 -2.180831 0.000000 0.000000 0.000000 -3.557933 0.971799 7.034392 11.876260 6.572688 -2.508064 69.547247 22.488661 14.472655 -143.629316 82.719478 -152.451516 0.000000 0.000000 0.000000 
-11.981300 76.284416 -26.931223 178.860238 9.259060 179.220134 -0.471271 -0.221433 14.409314 5.757838 -5.719797 -49.121010 6.940744 1.092597 49.372886 -3.352279 -1.539495 -8.371837 0.000000 0.000000 0.000000 2.275573 -1.834604 15.660729 -4.630923 -4.281940 -54.477404 2.703981 5.677638 58.609047 9.579258 7.106427 -2.327159 0.000000 0.000000 0.000000 5.101590 0.793935 15.023787 3.258899 -0.835701 17.027298 -1.087783 -1.606374 10.548797 0.079338 -0.254669 0.013155 -0.710824 -0.753667 11.735294 -5.058080 3.215288 -4.322895 0.000000 0.000000 0.000000 0.256685 -0.584606 7.728003 8.431293 -6.573012 1.896963 -77.918006 -15.302110 21.797902 34.006535 -86.191776 -9.320854 0.000000 0.000000 0.000000 -3.501653 1.259135 6.799139 10.325206 6.363178 -2.867490 70.249664 24.048193 15.063460 -132.870880 83.416288 -142.237952 0.000000 0.000000 0.000000 
-13.017379 75.848305 -26.294529 179.040527 10.212233 179.502344 -0.682636 -0.135041 15.603366 5.606962 -4.786682 -52.026207 7.327200 1.264611 50.950868 -3.668669 -1.452771 -8.890754 0.000000 0.000000 0.000000 2.250576 -1.582304 16.416462 -2.688349 -5.833219 -55.118428 2.483102 4.865541 56.851373 8.705897 6.277082 -3.111971 0.000000 0.000000 0.000000 5.214912 0.596303 16.397131 2.938607 -0.822888 17.834659 -0.999289 -1.532730 10.223872 0.086301 -0.316628 -0.005860 -0.614949 -0.611415 11.553378 -5.031078 2.854600 -4.151771 0.000000 0.000000 0.000000 0.311973 -0.355907 7.490645 7.713975 -6.538529 1.943935 -77.875276 -15.548130 20.830257 34.755913 -86.027237 -10.385157 0.000000 0.000000 0.000000 -3.360671 1.415016 6.525203 9.051141 5.926190 -3.138468 70.765664 25.745679 15.501734 -123.752673 84.037801 -133.728438 0.000000 0.000000 0.000000 
